<?xml version="1.0" standalone="no"?>
<svg xmlns:xlink="http://www.w3.org/1999/xlink" id="wave" style="transform:rotate(180deg); transition: 0.3s" viewBox="0 0 1440 120" version="1.1" xmlns="http://www.w3.org/2000/svg"><defs><linearGradient id="sw-gradient-0" x1="0" x2="0" y1="1" y2="0"><stop stop-color="rgba(255, 249, 234, 1)" offset="0%"/><stop stop-color="rgba(255, 249, 234, 1)" offset="100%"/></linearGradient></defs><path style="transform:translate(0, 0px); opacity:1" fill="url(#sw-gradient-0)" d="M0,72L26.7,70C53.3,68,107,64,160,68C213.3,72,267,84,320,76C373.3,68,427,40,480,38C533.3,36,587,60,640,72C693.3,84,747,84,800,70C853.3,56,907,28,960,26C1013.3,24,1067,48,1120,58C1173.3,68,1227,64,1280,60C1333.3,56,1387,52,1440,44C1493.3,36,1547,24,1600,20C1653.3,16,1707,20,1760,28C1813.3,36,1867,48,1920,44C1973.3,40,2027,20,2080,14C2133.3,8,2187,16,2240,28C2293.3,40,2347,56,2400,56C2453.3,56,2507,40,2560,36C2613.3,32,2667,40,2720,38C2773.3,36,2827,24,2880,24C2933.3,24,2987,36,3040,48C3093.3,60,3147,72,3200,72C3253.3,72,3307,60,3360,58C3413.3,56,3467,64,3520,56C3573.3,48,3627,24,3680,14C3733.3,4,3787,8,3813,10L3840,12L3840,120L3813.3,120C3786.7,120,3733,120,3680,120C3626.7,120,3573,120,3520,120C3466.7,120,3413,120,3360,120C3306.7,120,3253,120,3200,120C3146.7,120,3093,120,3040,120C2986.7,120,2933,120,2880,120C2826.7,120,2773,120,2720,120C2666.7,120,2613,120,2560,120C2506.7,120,2453,120,2400,120C2346.7,120,2293,120,2240,120C2186.7,120,2133,120,2080,120C2026.7,120,1973,120,1920,120C1866.7,120,1813,120,1760,120C1706.7,120,1653,120,1600,120C1546.7,120,1493,120,1440,120C1386.7,120,1333,120,1280,120C1226.7,120,1173,120,1120,120C1066.7,120,1013,120,960,120C906.7,120,853,120,800,120C746.7,120,693,120,640,120C586.7,120,533,120,480,120C426.7,120,373,120,320,120C266.7,120,213,120,160,120C106.7,120,53,120,27,120L0,120Z"/></svg>